<?xml version="1.0" encoding="utf-8"?>
<!-- Generator: Adobe Illustrator 16.0.0, SVG Export Plug-In . SVG Version: 6.00 Build 0)  -->
<!DOCTYPE svg PUBLIC "-//W3C//DTD SVG 1.1//EN" "http://www.w3.org/Graphics/SVG/1.1/DTD/svg11.dtd">
<svg version="1.1" id="Layer_1" xmlns="http://www.w3.org/2000/svg" xmlns:xlink="http://www.w3.org/1999/xlink" x="0px" y="0px"
	 width="15px" height="15px" viewBox="0 0 15 15" enable-background="new 0 0 15 15" xml:space="preserve">
<path fill-rule="evenodd" clip-rule="evenodd" fill="#4DACC6" d="M1.5,0h12C14.329,0,15,0.671,15,1.5S14.329,3,13.5,3h-12
	C0.671,3,0,2.329,0,1.5S0.671,0,1.5,0z"/>
<path fill-rule="evenodd" clip-rule="evenodd" fill="#4DACC6" d="M1.5,6h12C14.329,6,15,6.671,15,7.5S14.329,9,13.5,9h-12
	C0.671,9,0,8.329,0,7.5S0.671,6,1.5,6z"/>
<path fill-rule="evenodd" clip-rule="evenodd" fill="#4DACC6" d="M1.5,12h12c0.829,0,1.5,0.671,1.5,1.5S14.329,15,13.5,15h-12
	C0.671,15,0,14.329,0,13.5S0.671,12,1.5,12z"/>
</svg>
